# xmcd CD database file
#
# Track frame offsets:
#	150
#	10633
#	27758
#	53304
#	71697
#	96864
#	108521
#	132411
#	155854
#	179015
#	197183
#	216593
#	229852
#	261262
#
# Disc length: 3911 seconds
#
# Revision: 0
# Processed by: cddbd v1.4PL0 Copyright (c) Steve Scherf et al.
# Submitted via: CDex 1.50beta9
#
DISCID=cb0f450e
DTITLE=Blues Power - No Lies!
DYEAR=1998
DGENRE=Blues
TTITLE0=Green Onions
TTITLE1=Looking Back
TTITLE2=What´s Going Down
TTITLE3=My ´55 Chevy
TTITLE4=Red House
TTITLE5=She Loves My Automobile
TTITLE6=Cheap Sunglasses
TTITLE7=Same Old Blues
TTITLE8=Little Wing
TTITLE9=Cold Shot
TTITLE10=Come On
TTITLE11=Boom Boom Out Go The Lights
TTITLE12=Fool For Your Stockings
TTITLE13=White Room
EXTD=YEAR: 1998
EXTT0=
EXTT1=
EXTT2=
EXTT3=
EXTT4=
EXTT5=
EXTT6=
EXTT7=
EXTT8=
EXTT9=
EXTT10=
EXTT11=
EXTT12=
EXTT13=
PLAYORDER=
